<?xml version="1.0" standalone="no"?>
<svg xmlns:xlink="http://www.w3.org/1999/xlink" id="wave" style="transform:rotate(180deg); transition: 0.3s" viewBox="0 0 1440 490" version="1.1" xmlns="http://www.w3.org/2000/svg"><defs><linearGradient id="sw-gradient-0" x1="0" x2="0" y1="1" y2="0"><stop stop-color="rgba(33, 50, 122, 1)" offset="0%"/><stop stop-color="rgba(66, 133, 244, 1)" offset="100%"/></linearGradient></defs><path style="transform:translate(0, 0px); opacity:1" fill="url(#sw-gradient-0)" d="M0,98L30,155.2C60,212,120,327,180,351.2C240,376,300,310,360,294C420,278,480,310,540,269.5C600,229,660,114,720,106.2C780,98,840,196,900,204.2C960,212,1020,131,1080,81.7C1140,33,1200,16,1260,16.3C1320,16,1380,33,1440,57.2C1500,82,1560,114,1620,155.2C1680,196,1740,245,1800,294C1860,343,1920,392,1980,367.5C2040,343,2100,245,2160,236.8C2220,229,2280,310,2340,302.2C2400,294,2460,196,2520,171.5C2580,147,2640,196,2700,236.8C2760,278,2820,310,2880,318.5C2940,327,3000,310,3060,261.3C3120,212,3180,131,3240,130.7C3300,131,3360,212,3420,253.2C3480,294,3540,294,3600,294C3660,294,3720,294,3780,285.8C3840,278,3900,261,3960,228.7C4020,196,4080,147,4140,130.7C4200,114,4260,131,4290,138.8L4320,147L4320,490L4290,490C4260,490,4200,490,4140,490C4080,490,4020,490,3960,490C3900,490,3840,490,3780,490C3720,490,3660,490,3600,490C3540,490,3480,490,3420,490C3360,490,3300,490,3240,490C3180,490,3120,490,3060,490C3000,490,2940,490,2880,490C2820,490,2760,490,2700,490C2640,490,2580,490,2520,490C2460,490,2400,490,2340,490C2280,490,2220,490,2160,490C2100,490,2040,490,1980,490C1920,490,1860,490,1800,490C1740,490,1680,490,1620,490C1560,490,1500,490,1440,490C1380,490,1320,490,1260,490C1200,490,1140,490,1080,490C1020,490,960,490,900,490C840,490,780,490,720,490C660,490,600,490,540,490C480,490,420,490,360,490C300,490,240,490,180,490C120,490,60,490,30,490L0,490Z"/><defs><linearGradient id="sw-gradient-1" x1="0" x2="0" y1="1" y2="0"><stop stop-color="rgba(85.12, 137.011, 223.495, 1)" offset="0%"/><stop stop-color="rgba(103, 160, 255, 1)" offset="100%"/></linearGradient></defs><path style="transform:translate(0, 50px); opacity:0.9" fill="url(#sw-gradient-1)" d="M0,441L30,424.7C60,408,120,376,180,334.8C240,294,300,245,360,212.3C420,180,480,163,540,130.7C600,98,660,49,720,57.2C780,65,840,131,900,155.2C960,180,1020,163,1080,196C1140,229,1200,310,1260,334.8C1320,359,1380,327,1440,294C1500,261,1560,229,1620,220.5C1680,212,1740,229,1800,236.8C1860,245,1920,245,1980,253.2C2040,261,2100,278,2160,236.8C2220,196,2280,98,2340,65.3C2400,33,2460,65,2520,81.7C2580,98,2640,98,2700,155.2C2760,212,2820,327,2880,383.8C2940,441,3000,441,3060,441C3120,441,3180,441,3240,367.5C3300,294,3360,147,3420,106.2C3480,65,3540,131,3600,147C3660,163,3720,131,3780,147C3840,163,3900,229,3960,245C4020,261,4080,229,4140,253.2C4200,278,4260,359,4290,400.2L4320,441L4320,490L4290,490C4260,490,4200,490,4140,490C4080,490,4020,490,3960,490C3900,490,3840,490,3780,490C3720,490,3660,490,3600,490C3540,490,3480,490,3420,490C3360,490,3300,490,3240,490C3180,490,3120,490,3060,490C3000,490,2940,490,2880,490C2820,490,2760,490,2700,490C2640,490,2580,490,2520,490C2460,490,2400,490,2340,490C2280,490,2220,490,2160,490C2100,490,2040,490,1980,490C1920,490,1860,490,1800,490C1740,490,1680,490,1620,490C1560,490,1500,490,1440,490C1380,490,1320,490,1260,490C1200,490,1140,490,1080,490C1020,490,960,490,900,490C840,490,780,490,720,490C660,490,600,490,540,490C480,490,420,490,360,490C300,490,240,490,180,490C120,490,60,490,30,490L0,490Z"/></svg>