<svg id="Capa_2" data-name="Capa 2" xmlns="http://www.w3.org/2000/svg" viewBox="0 0 960 960"><defs><style>.cls-1{fill:#fff;}</style></defs><path class="cls-1" d="M777.09,480c0,171-121.34,313.58-282.57,346.45h-.22a352.16,352.16,0,0,1-61.59,7H278.58a70.82,70.82,0,0,1-67.07-66.11V621.5a70.8,70.8,0,0,1,141.39-5.4V617c-.07,1.48-.14,3-.14,4.51s.07,3,.14,4.52v1c0-.15.08-.37.08-.52a70.69,70.69,0,0,0,65.22,65.67c1.77.15,3.55.22,5.4.22s3.7-.07,5.48-.22a70.82,70.82,0,0,0,65.22-67c.07-1.18.07-2.44.07-3.63s0-2.44-.07-3.62V342.27c.07-1.18.07-2.37.07-3.63s0-2.44-.07-3.62A70.94,70.94,0,0,0,428.12,268c-1.48-.08-3-.15-4.52-.15s-3,.07-4.51.15a70.82,70.82,0,0,0-66.19,66.18c0,.29-.07.59-.07.89-.07,1.18-.07,2.36-.07,3.62s0,2.45.07,3.63a70.71,70.71,0,0,1-141.32-3.63V197.18a70.61,70.61,0,0,1,70.62-70.63H423.6a353.72,353.72,0,0,1,70.7,7.11,1,1,0,0,1,.44.07C655.9,166.68,777.09,309.18,777.09,480Z"/></svg>